<svg width="16" height="16" viewBox="0 0 16 16" fill="none" xmlns="http://www.w3.org/2000/svg">
<path d="M8 9.6C8.15823 9.6 8.3129 9.55308 8.44446 9.46518C8.57602 9.37727 8.67855 9.25233 8.7391 9.10615C8.79965 8.95997 8.8155 8.79911 8.78463 8.64393C8.75376 8.48874 8.67757 8.3462 8.56569 8.23431C8.4538 8.12243 8.31126 8.04624 8.15607 8.01537C8.00089 7.9845 7.84003 8.00035 7.69385 8.0609C7.54767 8.12145 7.42273 8.22398 7.33482 8.35554C7.24692 8.4871 7.2 8.64178 7.2 8.8C7.2 9.01217 7.28429 9.21566 7.43431 9.36569C7.58434 9.51571 7.78783 9.6 8 9.6ZM12 9.6C12.1582 9.6 12.3129 9.55308 12.4445 9.46518C12.576 9.37727 12.6786 9.25233 12.7391 9.10615C12.7997 8.95997 12.8155 8.79911 12.7846 8.64393C12.7538 8.48874 12.6776 8.3462 12.5657 8.23431C12.4538 8.12243 12.3113 8.04624 12.1561 8.01537C12.0009 7.9845 11.84 8.00035 11.6939 8.0609C11.5477 8.12145 11.4227 8.22398 11.3348 8.35554C11.2469 8.4871 11.2 8.64178 11.2 8.8C11.2 9.01217 11.2843 9.21566 11.4343 9.36569C11.5843 9.51571 11.7878 9.6 12 9.6ZM8 12.8C8.15823 12.8 8.3129 12.7531 8.44446 12.6652C8.57602 12.5773 8.67855 12.4523 8.7391 12.3061C8.79965 12.16 8.8155 11.9991 8.78463 11.8439C8.75376 11.6887 8.67757 11.5462 8.56569 11.4343C8.4538 11.3224 8.31126 11.2462 8.15607 11.2154C8.00089 11.1845 7.84003 11.2003 7.69385 11.2609C7.54767 11.3214 7.42273 11.424 7.33482 11.5555C7.24692 11.6871 7.2 11.8418 7.2 12C7.2 12.2122 7.28429 12.4157 7.43431 12.5657C7.58434 12.7157 7.78783 12.8 8 12.8ZM12 12.8C12.1582 12.8 12.3129 12.7531 12.4445 12.6652C12.576 12.5773 12.6786 12.4523 12.7391 12.3061C12.7997 12.16 12.8155 11.9991 12.7846 11.8439C12.7538 11.6887 12.6776 11.5462 12.5657 11.4343C12.4538 11.3224 12.3113 11.2462 12.1561 11.2154C12.0009 11.1845 11.84 11.2003 11.6939 11.2609C11.5477 11.3214 11.4227 11.424 11.3348 11.5555C11.2469 11.6871 11.2 11.8418 11.2 12C11.2 12.2122 11.2843 12.4157 11.4343 12.5657C11.5843 12.7157 11.7878 12.8 12 12.8ZM4 9.6C4.15823 9.6 4.3129 9.55308 4.44446 9.46518C4.57602 9.37727 4.67855 9.25233 4.7391 9.10615C4.79965 8.95997 4.8155 8.79911 4.78463 8.64393C4.75376 8.48874 4.67757 8.3462 4.56569 8.23431C4.4538 8.12243 4.31126 8.04624 4.15607 8.01537C4.00089 7.9845 3.84003 8.00035 3.69385 8.0609C3.54767 8.12145 3.42273 8.22398 3.33482 8.35554C3.24692 8.4871 3.2 8.64178 3.2 8.8C3.2 9.01217 3.28429 9.21566 3.43431 9.36569C3.58434 9.51571 3.78783 9.6 4 9.6ZM13.6 1.6H12.8V0.8C12.8 0.587827 12.7157 0.384344 12.5657 0.234315C12.4157 0.0842854 12.2122 0 12 0C11.7878 0 11.5843 0.0842854 11.4343 0.234315C11.2843 0.384344 11.2 0.587827 11.2 0.8V1.6H4.8V0.8C4.8 0.587827 4.71571 0.384344 4.56569 0.234315C4.41566 0.0842854 4.21217 0 4 0C3.78783 0 3.58434 0.0842854 3.43431 0.234315C3.28429 0.384344 3.2 0.587827 3.2 0.8V1.6H2.4C1.76348 1.6 1.15303 1.85286 0.702944 2.30294C0.252856 2.75303 0 3.36348 0 4V13.6C0 14.2365 0.252856 14.847 0.702944 15.2971C1.15303 15.7471 1.76348 16 2.4 16H13.6C14.2365 16 14.847 15.7471 15.2971 15.2971C15.7471 14.847 16 14.2365 16 13.6V4C16 3.36348 15.7471 2.75303 15.2971 2.30294C14.847 1.85286 14.2365 1.6 13.6 1.6ZM14.4 13.6C14.4 13.8122 14.3157 14.0157 14.1657 14.1657C14.0157 14.3157 13.8122 14.4 13.6 14.4H2.4C2.18783 14.4 1.98434 14.3157 1.83431 14.1657C1.68429 14.0157 1.6 13.8122 1.6 13.6V6.4H14.4V13.6ZM14.4 4.8H1.6V4C1.6 3.78783 1.68429 3.58434 1.83431 3.43431C1.98434 3.28429 2.18783 3.2 2.4 3.2H13.6C13.8122 3.2 14.0157 3.28429 14.1657 3.43431C14.3157 3.58434 14.4 3.78783 14.4 4V4.8ZM4 12.8C4.15823 12.8 4.3129 12.7531 4.44446 12.6652C4.57602 12.5773 4.67855 12.4523 4.7391 12.3061C4.79965 12.16 4.8155 11.9991 4.78463 11.8439C4.75376 11.6887 4.67757 11.5462 4.56569 11.4343C4.4538 11.3224 4.31126 11.2462 4.15607 11.2154C4.00089 11.1845 3.84003 11.2003 3.69385 11.2609C3.54767 11.3214 3.42273 11.424 3.33482 11.5555C3.24692 11.6871 3.2 11.8418 3.2 12C3.2 12.2122 3.28429 12.4157 3.43431 12.5657C3.58434 12.7157 3.78783 12.8 4 12.8Z" fill="black"/>
</svg>
