<svg width="14" height="9" viewBox="0 0 14 9" fill="none" xmlns="http://www.w3.org/2000/svg">
<path d="M13.5981 0.37804C13.3543 0.135908 13.0245 0 12.6808 0C12.3371 0 12.0073 0.135908 11.7635 0.37804L7.09266 4.98017L2.48684 0.37804C2.24306 0.135908 1.9133 0 1.56957 0C1.22585 0 0.896087 0.135908 0.652313 0.37804C0.530365 0.498896 0.433572 0.642681 0.367518 0.801102C0.301464 0.959524 0.267456 1.12945 0.267456 1.30107C0.267456 1.47269 0.301464 1.64261 0.367518 1.80103C0.433572 1.95945 0.530365 2.10324 0.652313 2.22409L6.16889 7.73624C6.28984 7.85809 6.43374 7.95481 6.59229 8.02081C6.75084 8.08681 6.9209 8.12079 7.09266 8.12079C7.26441 8.12079 7.43447 8.08681 7.59302 8.02081C7.75157 7.95481 7.89547 7.85809 8.01642 7.73624L13.5981 2.22409C13.72 2.10324 13.8168 1.95945 13.8828 1.80103C13.9489 1.64261 13.9829 1.47269 13.9829 1.30107C13.9829 1.12945 13.9489 0.959524 13.8828 0.801102C13.8168 0.642681 13.72 0.498896 13.5981 0.37804Z" fill="#1C1F22"/>
</svg>
