<svg width="17" height="18" viewBox="0 0 17 18" fill="none" xmlns="http://www.w3.org/2000/svg">
<path d="M15.2818 5.41506L9.88825 0.686717C9.39382 0.244487 8.75375 0 8.0904 0C7.42706 0 6.78698 0.244487 6.29256 0.686717L0.89901 5.41506C0.613483 5.67042 0.385634 5.98368 0.230634 6.33398C0.0756342 6.68428 -0.00295976 7.06358 8.52127e-05 7.44663V15.3032C8.52127e-05 16.0185 0.284209 16.7044 0.789952 17.2101C1.29569 17.7159 1.98163 18 2.69686 18H13.4839C14.1992 18 14.8851 17.7159 15.3909 17.2101C15.8966 16.7044 16.1807 16.0185 16.1807 15.3032V7.43764C16.1825 7.0561 16.1033 6.67853 15.9483 6.32988C15.7934 5.98122 15.5662 5.66942 15.2818 5.41506ZM9.88825 16.2022H6.29256V11.7075C6.29256 11.4691 6.38726 11.2405 6.55584 11.0719C6.72443 10.9033 6.95307 10.8086 7.19148 10.8086H8.98933C9.22774 10.8086 9.45638 10.9033 9.62496 11.0719C9.79354 11.2405 9.88825 11.4691 9.88825 11.7075V16.2022ZM14.3829 15.3032C14.3829 15.5416 14.2882 15.7703 14.1196 15.9389C13.951 16.1074 13.7224 16.2022 13.4839 16.2022H11.6861V11.7075C11.6861 10.9923 11.402 10.3064 10.8962 9.80062C10.3905 9.29488 9.70456 9.01076 8.98933 9.01076H7.19148C6.47625 9.01076 5.79032 9.29488 5.28457 9.80062C4.77883 10.3064 4.49471 10.9923 4.49471 11.7075V16.2022H2.69686C2.45845 16.2022 2.2298 16.1074 2.06122 15.9389C1.89264 15.7703 1.79793 15.5416 1.79793 15.3032V7.43764C1.7981 7.31 1.82544 7.18387 1.87813 7.06762C1.93083 6.95138 2.00768 6.84768 2.10357 6.76345L7.49711 2.04409C7.66116 1.89998 7.87205 1.8205 8.0904 1.8205C8.30876 1.8205 8.51965 1.89998 8.68369 2.04409L14.0772 6.76345C14.1731 6.84768 14.25 6.95138 14.3027 7.06762C14.3554 7.18387 14.3827 7.31 14.3829 7.43764V15.3032Z" fill="black"/>
</svg>
