<svg width="21" height="18" viewBox="0 0 21 18" fill="none" xmlns="http://www.w3.org/2000/svg">
<path d="M10.801 9.21026C11.311 8.76879 11.7201 8.22276 12.0005 7.60924C12.2809 6.99572 12.426 6.32907 12.426 5.65452C12.426 4.38699 11.9224 3.17138 11.0262 2.27511C10.1299 1.37883 8.91427 0.875305 7.64675 0.875305C6.37922 0.875305 5.16361 1.37883 4.26733 2.27511C3.37105 3.17138 2.86753 4.38699 2.86753 5.65452C2.86752 6.32907 3.01263 6.99572 3.293 7.60924C3.57337 8.22276 3.98245 8.76879 4.49246 9.21026C3.15442 9.81615 2.01919 10.7946 1.2225 12.0286C0.425824 13.2626 0.00140686 14.7 0 16.1688C0 16.4223 0.100705 16.6654 0.27996 16.8447C0.459215 17.0239 0.702338 17.1246 0.955843 17.1246C1.20935 17.1246 1.45247 17.0239 1.63173 16.8447C1.81098 16.6654 1.91169 16.4223 1.91169 16.1688C1.91169 14.6478 2.51591 13.189 3.59145 12.1135C4.66698 11.038 6.12571 10.4337 7.64675 10.4337C9.16778 10.4337 10.6265 11.038 11.702 12.1135C12.7776 13.189 13.3818 14.6478 13.3818 16.1688C13.3818 16.4223 13.4825 16.6654 13.6618 16.8447C13.841 17.0239 14.0841 17.1246 14.3377 17.1246C14.5912 17.1246 14.8343 17.0239 15.0135 16.8447C15.1928 16.6654 15.2935 16.4223 15.2935 16.1688C15.2921 14.7 14.8677 13.2626 14.071 12.0286C13.2743 10.7946 12.1391 9.81615 10.801 9.21026ZM7.64675 8.52205C7.0796 8.52205 6.5252 8.35387 6.05363 8.03879C5.58207 7.7237 5.21453 7.27585 4.99749 6.75188C4.78046 6.22791 4.72367 5.65134 4.83432 5.09509C4.94496 4.53885 5.21807 4.0279 5.6191 3.62687C6.02013 3.22584 6.53107 2.95274 7.08732 2.84209C7.64357 2.73145 8.22013 2.78823 8.7441 3.00527C9.26807 3.22231 9.71592 3.58984 10.031 4.06141C10.3461 4.53297 10.5143 5.08738 10.5143 5.65452C10.5143 6.41504 10.2122 7.14441 9.6744 7.68217C9.13663 8.21994 8.40726 8.52205 7.64675 8.52205ZM16.9567 8.82792C17.5684 8.13907 17.968 7.28811 18.1073 6.37746C18.2467 5.46682 18.1199 4.5353 17.7421 3.69504C17.3644 2.85479 16.7519 2.1416 15.9783 1.64134C15.2047 1.14108 14.3031 0.875059 13.3818 0.875305C13.1283 0.875305 12.8852 0.97601 12.7059 1.15527C12.5267 1.33452 12.426 1.57764 12.426 1.83115C12.426 2.08465 12.5267 2.32778 12.7059 2.50703C12.8852 2.68629 13.1283 2.78699 13.3818 2.78699C14.1423 2.78699 14.8717 3.08911 15.4095 3.62687C15.9472 4.16464 16.2493 4.89401 16.2493 5.65452C16.248 6.15657 16.1148 6.64946 15.8632 7.08391C15.6116 7.51836 15.2504 7.87913 14.8156 8.13016C14.6739 8.2119 14.5555 8.32865 14.4718 8.46923C14.3881 8.60981 14.3419 8.76952 14.3377 8.93306C14.3337 9.09533 14.371 9.25594 14.4463 9.39976C14.5215 9.54358 14.6322 9.66586 14.7678 9.75509L15.1406 10.0036L15.2648 10.0705C16.417 10.617 17.389 11.4813 18.0664 12.5617C18.7437 13.6422 19.0983 14.8936 19.0882 16.1688C19.0882 16.4223 19.1889 16.6654 19.3682 16.8447C19.5474 17.0239 19.7905 17.1246 20.044 17.1246C20.2975 17.1246 20.5407 17.0239 20.7199 16.8447C20.8992 16.6654 20.9999 16.4223 20.9999 16.1688C21.0077 14.702 20.6403 13.2575 19.9326 11.9727C19.225 10.6879 18.2005 9.60532 16.9567 8.82792Z" fill="black"/>
</svg>
